# xmcd
#
# Track frame offsets:
#	150
#	15275
#	32966
#	54743
#	67644
#	80689
#	94018
#	114576
#	130848
#	146285
#	159865
#
# Disc length: 2301 seconds
#
# Revision: 1
# Processed by: cddbd v1.5.2PL0 Copyright (c) Steve Scherf et al.
# Submitted via: audiograbber 1.83.01
#
DISCID=8008fb0b
DTITLE=Pam Clarke - Now
DYEAR=1998
DGENRE=Country
TTITLE0=I Don't Care If Yo're Not There
TTITLE1=This Is Now And That Was Then
TTITLE2=When The Bushie Wed The Schoolie
TTITLE3=The Word
TTITLE4=Pray God Opens The Door
TTITLE5=Now
TTITLE6=The Simple Things
TTITLE7=Do I Ever Cross Your Mind
TTITLE8=She's Not The Cheatin' Kind
TTITLE9=Apple Jack
TTITLE10=Love Away Your Troubles
EXTD=
EXTT0=
EXTT1=
EXTT2=
EXTT3=
EXTT4=
EXTT5=
EXTT6=
EXTT7=
EXTT8=
EXTT9=
EXTT10=
PLAYORDER=
